<svg xmlns="http://www.w3.org/2000/svg" xmlns:xlink="http://www.w3.org/1999/xlink" width="500" zoomAndPan="magnify" viewBox="0 0 375 374.999991" height="500" preserveAspectRatio="xMidYMid meet" version="1.2"><defs><clipPath id="6ea99c38fc"><path d="M 164.746094 141.132812 L 218.535156 141.132812 L 218.535156 194.921875 L 164.746094 194.921875 Z M 164.746094 141.132812 "/></clipPath><clipPath id="6908dcc977"><path d="M 191.640625 141.132812 C 176.785156 141.132812 164.746094 153.171875 164.746094 168.027344 C 164.746094 182.878906 176.785156 194.921875 191.640625 194.921875 C 206.492188 194.921875 218.535156 182.878906 218.535156 168.027344 C 218.535156 153.171875 206.492188 141.132812 191.640625 141.132812 Z M 191.640625 141.132812 "/></clipPath><clipPath id="3e1ab4712d"><path d="M 163.230469 139.617188 L 220.230469 139.617188 L 220.230469 196.617188 L 163.230469 196.617188 Z M 163.230469 139.617188 "/></clipPath></defs><g id="1c214cae68"><g style="fill:#1ebbcb;fill-opacity:1;"><g transform="translate(40.578741, 196.393599)"><path style="stroke:none" d="M 34.703125 -35.140625 C 40.648438 -32.671875 45.273438 -30.332031 48.578125 -28.125 C 51.878906 -25.914062 54.21875 -23.757812 55.59375 -21.65625 C 56.96875 -19.550781 57.65625 -17.410156 57.65625 -15.234375 C 57.65625 -11.898438 56.421875 -9.035156 53.953125 -6.640625 C 51.492188 -4.242188 48.066406 -2.410156 43.671875 -1.140625 C 39.285156 0.128906 34.226562 0.765625 28.5 0.765625 C 24.15625 0.765625 19.96875 0.203125 15.9375 -0.921875 C 11.914062 -2.046875 8.632812 -3.769531 6.09375 -6.09375 C 3.550781 -8.414062 2.28125 -11.316406 2.28125 -14.796875 C 2.28125 -16.460938 2.914062 -18.109375 4.1875 -19.734375 C 5.457031 -21.367188 7.398438 -22.1875 10.015625 -22.1875 C 11.828125 -22.1875 13.492188 -21.609375 15.015625 -20.453125 C 16.535156 -19.296875 17.550781 -17.554688 18.0625 -15.234375 C 18.851562 -11.679688 20.519531 -8.722656 23.0625 -6.359375 C 25.601562 -4.003906 28.429688 -2.828125 31.546875 -2.828125 C 34.453125 -2.828125 36.8125 -3.5 38.625 -4.84375 C 40.4375 -6.1875 41.34375 -7.765625 41.34375 -9.578125 C 41.34375 -11.460938 40.070312 -13.472656 37.53125 -15.609375 C 35 -17.753906 31.082031 -19.84375 25.78125 -21.875 C 19.113281 -24.550781 13.984375 -27.300781 10.390625 -30.125 C 6.796875 -32.957031 5 -36.476562 5 -40.6875 C 5 -43.882812 6.085938 -46.769531 8.265625 -49.34375 C 10.441406 -51.914062 13.394531 -53.960938 17.125 -55.484375 C 20.863281 -57.003906 25.09375 -57.765625 29.8125 -57.765625 C 34.445312 -57.765625 38.8125 -57.113281 42.90625 -55.8125 C 47.007812 -54.507812 50.332031 -52.710938 52.875 -50.421875 C 55.414062 -48.140625 56.6875 -45.441406 56.6875 -42.328125 C 56.6875 -40.722656 56.101562 -39.160156 54.9375 -37.640625 C 53.78125 -36.117188 51.929688 -35.359375 49.390625 -35.359375 C 47.578125 -35.359375 45.890625 -35.972656 44.328125 -37.203125 C 42.773438 -38.441406 41.742188 -40.1875 41.234375 -42.4375 C 40.503906 -45.84375 38.925781 -48.6875 36.5 -50.96875 C 34.070312 -53.25 31.257812 -54.390625 28.0625 -54.390625 C 25.3125 -54.390625 22.898438 -53.679688 20.828125 -52.265625 C 18.765625 -50.859375 17.734375 -49.285156 17.734375 -47.546875 C 17.734375 -46.453125 18.1875 -45.304688 19.09375 -44.109375 C 20 -42.921875 21.6875 -41.597656 24.15625 -40.140625 C 26.625 -38.691406 30.140625 -37.023438 34.703125 -35.140625 Z M 34.703125 -35.140625 "/></g></g><g style="fill:#1ebbcb;fill-opacity:1;"><g transform="translate(99.868184, 196.393599)"><path style="stroke:none" d="M 53.859375 -12.625 C 54.359375 -12.988281 54.84375 -12.914062 55.3125 -12.40625 C 55.789062 -11.894531 55.847656 -11.238281 55.484375 -10.4375 C 54.828125 -9.0625 53.5 -7.484375 51.5 -5.703125 C 49.507812 -3.929688 46.863281 -2.410156 43.5625 -1.140625 C 40.269531 0.128906 36.265625 0.765625 31.546875 0.765625 C 25.023438 0.765625 19.53125 -0.59375 15.0625 -3.3125 C 10.601562 -6.03125 7.25 -9.582031 5 -13.96875 C 2.75 -18.363281 1.625 -23.0625 1.625 -28.0625 C 1.625 -32.34375 2.457031 -36.28125 4.125 -39.875 C 5.800781 -43.46875 8.109375 -46.601562 11.046875 -49.28125 C 13.984375 -51.96875 17.316406 -54.050781 21.046875 -55.53125 C 24.785156 -57.019531 28.722656 -57.765625 32.859375 -57.765625 C 38.515625 -57.765625 43.335938 -56.875 47.328125 -55.09375 C 51.316406 -53.320312 54.253906 -50.695312 56.140625 -47.21875 C 57.003906 -45.550781 57.414062 -43.8125 57.375 -42 C 57.34375 -40.1875 56.820312 -38.585938 55.8125 -37.203125 C 54.800781 -35.828125 53.207031 -34.882812 51.03125 -34.375 C 49 -33.945312 47.078125 -34.253906 45.265625 -35.296875 C 43.453125 -36.347656 42.21875 -38.179688 41.5625 -40.796875 C 40.832031 -44.347656 39.597656 -47.445312 37.859375 -50.09375 C 36.117188 -52.75 33.941406 -54.078125 31.328125 -54.078125 C 29.078125 -54.078125 27.023438 -53.132812 25.171875 -51.25 C 23.328125 -49.363281 21.859375 -46.84375 20.765625 -43.6875 C 19.679688 -40.53125 19.140625 -37.066406 19.140625 -33.296875 C 19.140625 -28.066406 20.03125 -23.566406 21.8125 -19.796875 C 23.59375 -16.023438 25.96875 -13.125 28.9375 -11.09375 C 31.914062 -9.0625 35.21875 -8.046875 38.84375 -8.046875 C 42.03125 -8.046875 44.945312 -8.535156 47.59375 -9.515625 C 50.238281 -10.492188 52.328125 -11.53125 53.859375 -12.625 Z M 53.859375 -12.625 "/></g></g><g style="fill:#1ebbcb;fill-opacity:1;"><g transform="translate(159.810398, 196.393599)"><path style="stroke:none" d="M 31.65625 -57.65625 C 35.789062 -57.65625 39.671875 -56.894531 43.296875 -55.375 C 46.921875 -53.851562 50.113281 -51.75 52.875 -49.0625 C 55.632812 -46.382812 57.789062 -43.285156 59.34375 -39.765625 C 60.90625 -36.242188 61.6875 -32.453125 61.6875 -28.390625 C 61.6875 -24.328125 60.90625 -20.535156 59.34375 -17.015625 C 57.789062 -13.503906 55.632812 -10.40625 52.875 -7.71875 C 50.113281 -5.039062 46.921875 -2.9375 43.296875 -1.40625 C 39.671875 0.113281 35.789062 0.875 31.65625 0.875 C 27.519531 0.875 23.640625 0.113281 20.015625 -1.40625 C 16.390625 -2.9375 13.195312 -5.039062 10.4375 -7.71875 C 7.6875 -10.40625 5.53125 -13.503906 3.96875 -17.015625 C 2.40625 -20.535156 1.625 -24.328125 1.625 -28.390625 C 1.625 -32.453125 2.40625 -36.242188 3.96875 -39.765625 C 5.53125 -43.285156 7.6875 -46.382812 10.4375 -49.0625 C 13.195312 -51.75 16.390625 -53.851562 20.015625 -55.375 C 23.640625 -56.894531 27.519531 -57.65625 31.65625 -57.65625 Z M 35.90625 -3.59375 C 38.082031 -3.59375 39.710938 -4.679688 40.796875 -6.859375 C 41.890625 -9.035156 42.578125 -11.84375 42.859375 -15.28125 C 43.148438 -18.726562 43.113281 -22.265625 42.75 -25.890625 C 42.46875 -29.296875 41.875 -32.628906 40.96875 -35.890625 C 40.0625 -39.160156 38.914062 -42.097656 37.53125 -44.703125 C 36.15625 -47.316406 34.613281 -49.40625 32.90625 -50.96875 C 31.207031 -52.53125 29.378906 -53.3125 27.421875 -53.3125 C 25.316406 -53.3125 23.703125 -52.222656 22.578125 -50.046875 C 21.453125 -47.867188 20.757812 -45.078125 20.5 -41.671875 C 20.25 -38.265625 20.269531 -34.742188 20.5625 -31.109375 C 20.851562 -27.847656 21.429688 -24.582031 22.296875 -21.3125 C 23.171875 -18.050781 24.296875 -15.078125 25.671875 -12.390625 C 27.054688 -9.710938 28.617188 -7.578125 30.359375 -5.984375 C 32.097656 -4.390625 33.945312 -3.59375 35.90625 -3.59375 Z M 35.90625 -3.59375 "/></g></g><g style="fill:#1ebbcb;fill-opacity:1;"><g transform="translate(223.124992, 196.393599)"><path style="stroke:none" d="M 5.21875 -4.5625 C 5.21875 -5 5.21875 -6.453125 5.21875 -8.921875 C 5.21875 -11.390625 5.21875 -14.398438 5.21875 -17.953125 C 5.21875 -21.503906 5.195312 -25.238281 5.15625 -29.15625 C 5.125 -33.070312 5.109375 -36.769531 5.109375 -40.25 C 5.109375 -43.738281 5.109375 -46.601562 5.109375 -48.84375 C 5.109375 -51.09375 5.109375 -52.289062 5.109375 -52.4375 C 5.109375 -53.738281 4.382812 -54.570312 2.9375 -54.9375 C 2.0625 -55.15625 1.625 -55.59375 1.625 -56.25 C 1.625 -56.90625 2.0625 -57.234375 2.9375 -57.234375 C 3.664062 -57.234375 4.972656 -57.195312 6.859375 -57.125 C 8.742188 -57.050781 11.023438 -57.015625 13.703125 -57.015625 L 25.5625 -57.015625 C 32.96875 -57.015625 38.878906 -56.234375 43.296875 -54.671875 C 47.722656 -53.109375 50.929688 -50.96875 52.921875 -48.25 C 54.921875 -45.53125 55.921875 -42.429688 55.921875 -38.953125 C 55.921875 -35.609375 54.90625 -32.578125 52.875 -29.859375 C 50.84375 -27.140625 47.597656 -24.960938 43.140625 -23.328125 C 38.679688 -21.703125 32.820312 -20.890625 25.5625 -20.890625 L 22.40625 -20.890625 L 22.40625 -4.5625 C 22.40625 -3.257812 23.097656 -2.460938 24.484375 -2.171875 C 25.492188 -1.878906 26 -1.410156 26 -0.765625 C 26 -0.109375 25.53125 0.21875 24.59375 0.21875 C 23.863281 0.21875 22.570312 0.179688 20.71875 0.109375 C 18.875 0.0351562 16.609375 0 13.921875 0 L 13.703125 0 C 11.097656 0 8.851562 0.0351562 6.96875 0.109375 C 5.082031 0.179688 3.738281 0.21875 2.9375 0.21875 C 2.0625 0.21875 1.625 -0.109375 1.625 -0.765625 C 1.625 -1.410156 2.0625 -1.878906 2.9375 -2.171875 C 4.457031 -2.460938 5.21875 -3.257812 5.21875 -4.5625 Z M 22.40625 -49.609375 L 22.40625 -25.015625 L 26.4375 -25.015625 C 29.914062 -25.015625 32.816406 -26.359375 35.140625 -29.046875 C 37.460938 -31.734375 38.625 -35.035156 38.625 -38.953125 C 38.625 -43.015625 37.460938 -46.367188 35.140625 -49.015625 C 32.816406 -51.660156 29.914062 -52.984375 26.4375 -52.984375 L 25.015625 -52.984375 C 24.078125 -52.984375 23.40625 -52.726562 23 -52.21875 C 22.601562 -51.707031 22.40625 -50.835938 22.40625 -49.609375 Z M 22.40625 -49.609375 "/></g></g><g style="fill:#1ebbcb;fill-opacity:1;"><g transform="translate(280.673813, 196.393599)"><path style="stroke:none" d="M 32.75 -52.984375 L 25.125 -52.984375 C 24.1875 -52.984375 23.5 -52.726562 23.0625 -52.21875 C 22.625 -51.707031 22.40625 -50.835938 22.40625 -49.609375 L 22.40625 -30.578125 L 27.53125 -30.578125 C 29.707031 -30.578125 31.738281 -31.082031 33.625 -32.09375 C 35.507812 -33.113281 36.703125 -34.851562 37.203125 -37.3125 C 37.421875 -38.625 37.929688 -39.207031 38.734375 -39.0625 C 39.597656 -39.0625 40.03125 -38.515625 40.03125 -37.421875 C 40.101562 -36.554688 40.082031 -35.320312 39.96875 -33.71875 C 39.863281 -32.125 39.8125 -30.457031 39.8125 -28.71875 L 39.8125 -28.28125 C 39.8125 -26.539062 39.863281 -24.875 39.96875 -23.28125 C 40.082031 -21.6875 40.101562 -20.453125 40.03125 -19.578125 C 40.03125 -18.492188 39.597656 -17.953125 38.734375 -17.953125 C 37.929688 -17.953125 37.421875 -18.53125 37.203125 -19.6875 C 36.703125 -22.226562 35.507812 -24.003906 33.625 -25.015625 C 31.738281 -26.035156 29.707031 -26.546875 27.53125 -26.546875 L 22.40625 -26.546875 L 22.40625 -7.390625 C 22.40625 -6.160156 22.625 -5.3125 23.0625 -4.84375 C 23.5 -4.375 24.1875 -4.140625 25.125 -4.140625 L 34.703125 -4.140625 C 36.367188 -4.140625 37.984375 -4.695312 39.546875 -5.8125 C 41.109375 -6.9375 42.539062 -8.367188 43.84375 -10.109375 C 45.144531 -11.859375 46.285156 -13.640625 47.265625 -15.453125 C 48.242188 -17.265625 48.988281 -18.859375 49.5 -20.234375 C 50.007812 -21.535156 50.734375 -22.1875 51.671875 -22.1875 C 52.765625 -21.976562 53.238281 -21.21875 53.09375 -19.90625 C 53.019531 -18.820312 52.835938 -17.023438 52.546875 -14.515625 C 52.253906 -12.015625 51.859375 -8.734375 51.359375 -4.671875 C 51.140625 -2.640625 50.957031 -1.242188 50.8125 -0.484375 C 50.664062 0.273438 50.15625 0.65625 49.28125 0.65625 C 48.5625 0.65625 47.75 0.546875 46.84375 0.328125 C 45.9375 0.109375 44.359375 0 42.109375 0 L 13.921875 0 C 11.242188 0 8.941406 0.0351562 7.015625 0.109375 C 5.097656 0.179688 3.773438 0.21875 3.046875 0.21875 C 2.097656 0.21875 1.625 -0.109375 1.625 -0.765625 C 1.625 -1.410156 2.132812 -1.878906 3.15625 -2.171875 C 4.53125 -2.460938 5.21875 -3.257812 5.21875 -4.5625 L 5.21875 -52.4375 C 5.21875 -53.738281 4.53125 -54.570312 3.15625 -54.9375 C 2.132812 -55.15625 1.625 -55.59375 1.625 -56.25 C 1.625 -56.90625 2.097656 -57.234375 3.046875 -57.234375 C 3.773438 -57.234375 5.097656 -57.195312 7.015625 -57.125 C 8.941406 -57.050781 11.242188 -57.015625 13.921875 -57.015625 C 14.796875 -57.015625 16.191406 -57.015625 18.109375 -57.015625 C 20.035156 -57.015625 22.191406 -57.03125 24.578125 -57.0625 C 26.972656 -57.101562 29.296875 -57.125 31.546875 -57.125 C 33.796875 -57.125 35.71875 -57.125 37.3125 -57.125 C 38.90625 -57.125 39.847656 -57.125 40.140625 -57.125 C 42.390625 -57.125 43.96875 -57.226562 44.875 -57.4375 C 45.78125 -57.65625 46.597656 -57.765625 47.328125 -57.765625 C 48.191406 -57.765625 48.695312 -57.382812 48.84375 -56.625 C 48.988281 -55.863281 49.171875 -54.46875 49.390625 -52.4375 C 49.898438 -48.445312 50.265625 -45.378906 50.484375 -43.234375 C 50.703125 -41.097656 50.847656 -39.453125 50.921875 -38.296875 C 50.992188 -37.710938 50.882812 -37.203125 50.59375 -36.765625 C 50.300781 -36.335938 49.9375 -36.125 49.5 -36.125 C 48.488281 -35.90625 47.726562 -36.519531 47.21875 -37.96875 C 46.5625 -39.851562 45.507812 -41.957031 44.0625 -44.28125 C 42.613281 -46.601562 40.925781 -48.632812 39 -50.375 C 37.082031 -52.113281 35 -52.984375 32.75 -52.984375 Z M 32.75 -52.984375 "/></g></g><g clip-rule="nonzero" clip-path="url(#6ea99c38fc)"><g clip-rule="nonzero" clip-path="url(#6908dcc977)"><path style=" stroke:none;fill-rule:nonzero;fill:#5dcad5;fill-opacity:1;" d="M 164.746094 141.132812 L 218.535156 141.132812 L 218.535156 194.921875 L 164.746094 194.921875 Z M 164.746094 141.132812 "/></g></g><g clip-rule="nonzero" clip-path="url(#3e1ab4712d)"><path style=" stroke:none;fill-rule:evenodd;fill:#ffffff;fill-opacity:1;" d="M 168.65625 181.382812 C 168.910156 181.820312 168.761719 182.378906 168.324219 182.632812 C 167.886719 182.886719 167.328125 182.738281 167.074219 182.300781 C 164.546875 177.957031 163.230469 173.050781 163.230469 168.023438 C 163.230469 152.335938 175.949219 139.617188 191.636719 139.617188 C 197.683594 139.617188 203.539062 141.527344 208.414062 145.105469 L 207.820312 143.023438 C 207.683594 142.539062 207.964844 142.03125 208.453125 141.894531 C 208.9375 141.753906 209.445312 142.039062 209.582031 142.523438 L 210.972656 147.402344 C 211.144531 148.003906 210.675781 148.589844 210.0625 148.566406 L 205.058594 148.746094 C 204.554688 148.765625 204.128906 148.371094 204.113281 147.867188 C 204.09375 147.363281 204.488281 146.9375 204.992188 146.921875 L 207.664062 146.824219 C 203.03125 143.316406 197.445312 141.449219 191.636719 141.449219 C 176.960938 141.449219 165.0625 153.347656 165.0625 168.023438 C 165.0625 172.730469 166.289062 177.316406 168.65625 181.382812 Z M 181.628906 173.339844 C 181.765625 176.402344 182.5625 179.347656 183.921875 181.992188 C 186.085938 181.4375 188.394531 181.125 190.71875 181.0625 L 190.71875 173.339844 Z M 198.066406 154.59375 C 196.792969 154.832031 195.527344 155.085938 194.257812 155.316406 C 192.210938 155.6875 191.0625 155.6875 189.015625 155.316406 C 187.746094 155.085938 186.476562 154.832031 185.207031 154.59375 C 185.507812 157.878906 188.273438 160.453125 191.636719 160.453125 C 195 160.453125 197.761719 157.878906 198.066406 154.59375 Z M 204.082031 171.503906 C 203.234375 167.800781 200.773438 164.714844 197.484375 163.015625 L 194.867188 167.675781 C 194.558594 168.226562 193.785156 168.308594 193.371094 167.820312 L 191.636719 165.765625 L 189.929688 167.789062 C 189.535156 168.300781 188.730469 168.253906 188.40625 167.675781 L 185.789062 163.015625 C 182.496094 164.714844 180.039062 167.800781 179.191406 171.503906 Z M 195.789062 162.289062 L 195.785156 162.289062 L 192.949219 164.484375 L 193.914062 165.632812 Z M 193.511719 161.738281 C 192.269531 161.554688 191 161.554688 189.757812 161.738281 L 191.636719 163.191406 Z M 187.488281 162.289062 L 187.480469 162.289062 L 189.355469 165.632812 L 190.324219 164.484375 Z M 184.867188 183.644531 C 186.363281 186.003906 188.339844 188.070312 190.71875 189.699219 L 190.71875 182.894531 C 188.71875 182.953125 186.734375 183.203125 184.867188 183.644531 Z M 187.792969 189.757812 C 184.714844 189.082031 181.933594 187.601562 179.683594 185.550781 C 180.714844 185 181.839844 184.535156 183.03125 184.152344 C 184.289062 186.25 185.894531 188.144531 187.792969 189.757812 Z M 182.136719 182.519531 C 180.746094 179.703125 179.933594 176.585938 179.800781 173.339844 L 173.898438 173.339844 C 174.113281 177.496094 175.757812 181.277344 178.347656 184.199219 C 179.507812 183.535156 180.78125 182.972656 182.136719 182.519531 Z M 203.46875 173.339844 C 203.335938 176.585938 202.527344 179.703125 201.132812 182.519531 C 202.488281 182.972656 203.765625 183.535156 204.921875 184.199219 C 207.515625 181.277344 209.160156 177.496094 209.371094 173.339844 Z M 200.242188 184.152344 C 201.433594 184.535156 202.558594 185 203.589844 185.550781 C 201.339844 187.601562 198.558594 189.082031 195.480469 189.761719 C 197.378906 188.144531 198.980469 186.25 200.242188 184.152344 Z M 192.550781 189.699219 C 194.929688 188.070312 196.90625 186.003906 198.40625 183.644531 C 196.539062 183.203125 194.554688 182.953125 192.550781 182.894531 Z M 199.351562 181.992188 C 200.710938 179.347656 201.507812 176.402344 201.644531 173.339844 L 192.550781 173.339844 L 192.550781 181.0625 C 194.878906 181.125 197.1875 181.4375 199.351562 181.992188 Z M 199.671875 152 L 199.023438 152.261719 L 199.023438 155.601562 L 200.589844 154.777344 L 202.152344 155.601562 L 202.152344 152.261719 L 201.503906 152 L 201.503906 146.765625 C 201.535156 146.339844 201.253906 145.9375 200.824219 145.824219 L 191.882812 143.449219 C 191.730469 143.40625 191.566406 143.402344 191.402344 143.445312 L 182.457031 145.820312 C 182.144531 145.898438 181.882812 146.140625 181.792969 146.476562 C 181.667969 146.964844 181.957031 147.464844 182.445312 147.59375 L 191.390625 149.96875 C 191.542969 150.011719 191.707031 150.015625 191.867188 149.972656 L 199.671875 147.898438 Z M 198.152344 150.199219 L 192.339844 151.742188 C 191.871094 151.867188 191.378906 151.863281 190.910156 151.738281 L 185.121094 150.199219 L 185.121094 152.714844 C 192.898438 154.136719 190.375 154.136719 198.152344 152.714844 Z M 175.449219 193.023438 L 174.859375 190.945312 C 179.734375 194.519531 185.589844 196.429688 191.636719 196.429688 C 207.324219 196.429688 220.042969 183.710938 220.042969 168.023438 C 220.042969 163 218.726562 158.089844 216.195312 153.75 C 215.941406 153.3125 215.382812 153.164062 214.945312 153.414062 C 214.511719 153.667969 214.359375 154.226562 214.613281 154.664062 C 216.984375 158.730469 218.210938 163.320312 218.210938 168.023438 C 218.210938 182.699219 206.3125 194.597656 191.636719 194.597656 C 185.824219 194.597656 180.238281 192.730469 175.609375 189.222656 L 178.277344 189.125 C 178.785156 189.109375 179.175781 188.683594 179.160156 188.179688 C 179.140625 187.675781 178.71875 187.28125 178.214844 187.300781 L 173.210938 187.480469 C 172.597656 187.457031 172.128906 188.042969 172.296875 188.644531 L 173.691406 193.523438 C 173.828125 194.007812 174.335938 194.292969 174.820312 194.152344 C 175.308594 194.015625 175.589844 193.507812 175.449219 193.023438 Z M 175.449219 193.023438 "/></g><g style="fill:#fbd025;fill-opacity:1;"><g transform="translate(42.025804, 228.523065)"><path style="stroke:none" d="M 5.875 0.25 C 7.363281 0.25 8.5625 -0.171875 9.46875 -1.015625 C 10.5 -2.003906 11.015625 -3.359375 11.015625 -5.078125 L 11.015625 -6.4375 C 11.015625 -8.414062 10.253906 -10.085938 8.734375 -11.453125 C 8.316406 -11.828125 7.570312 -12.300781 6.5 -12.875 C 5.90625 -13.207031 5.503906 -13.457031 5.296875 -13.625 C 4.523438 -14.300781 4.140625 -15.113281 4.140625 -16.0625 L 4.140625 -16.59375 C 4.140625 -17.332031 4.296875 -17.847656 4.609375 -18.140625 C 4.878906 -18.390625 5.300781 -18.515625 5.875 -18.515625 C 6.476562 -18.515625 6.90625 -18.390625 7.15625 -18.140625 C 7.457031 -17.867188 7.609375 -17.351562 7.609375 -16.59375 L 7.609375 -14.703125 L 11.015625 -14.703125 L 11.015625 -16.59375 C 11.015625 -18.300781 10.5 -19.648438 9.46875 -20.640625 C 8.5625 -21.492188 7.363281 -21.921875 5.875 -21.921875 C 4.394531 -21.921875 3.203125 -21.492188 2.296875 -20.640625 C 1.265625 -19.648438 0.75 -18.300781 0.75 -16.59375 L 0.75 -16.0625 C 0.75 -15.09375 0.941406 -14.1875 1.328125 -13.34375 C 1.722656 -12.5 2.289062 -11.742188 3.03125 -11.078125 C 3.488281 -10.691406 4.203125 -10.238281 5.171875 -9.71875 C 5.867188 -9.320312 6.300781 -9.054688 6.46875 -8.921875 C 7.226562 -8.210938 7.609375 -7.382812 7.609375 -6.4375 L 7.609375 -5.078125 C 7.609375 -4.316406 7.457031 -3.800781 7.15625 -3.53125 C 6.90625 -3.28125 6.476562 -3.15625 5.875 -3.15625 C 5.300781 -3.15625 4.878906 -3.28125 4.609375 -3.53125 C 4.296875 -3.820312 4.140625 -4.335938 4.140625 -5.078125 L 4.140625 -7.890625 L 0.75 -7.890625 L 0.75 -5.078125 C 0.75 -3.359375 1.265625 -2.003906 2.296875 -1.015625 C 3.203125 -0.171875 4.394531 0.25 5.875 0.25 Z M 5.875 0.25 "/></g></g><g style="fill:#fbd025;fill-opacity:1;"><g transform="translate(53.848454, 228.523065)"><path style="stroke:none" d="M 6.09375 0.25 C 7.582031 0.25 8.78125 -0.171875 9.6875 -1.015625 C 10.71875 -2.003906 11.234375 -3.359375 11.234375 -5.078125 L 11.234375 -7.859375 L 7.828125 -7.859375 L 7.828125 -5.078125 C 7.828125 -4.316406 7.679688 -3.800781 7.390625 -3.53125 C 7.128906 -3.28125 6.695312 -3.15625 6.09375 -3.15625 C 5.519531 -3.15625 5.097656 -3.28125 4.828125 -3.53125 C 4.515625 -3.820312 4.359375 -4.335938 4.359375 -5.078125 L 4.359375 -16.59375 C 4.359375 -17.332031 4.515625 -17.847656 4.828125 -18.140625 C 5.097656 -18.390625 5.519531 -18.515625 6.09375 -18.515625 C 6.695312 -18.515625 7.128906 -18.390625 7.390625 -18.140625 C 7.679688 -17.867188 7.828125 -17.351562 7.828125 -16.59375 L 7.828125 -14.671875 L 11.234375 -14.671875 L 11.234375 -16.59375 C 11.234375 -18.300781 10.71875 -19.648438 9.6875 -20.640625 C 8.78125 -21.492188 7.582031 -21.921875 6.09375 -21.921875 C 4.65625 -21.921875 3.457031 -21.492188 2.5 -20.640625 C 1.46875 -19.609375 0.953125 -18.257812 0.953125 -16.59375 L 0.953125 -5.078125 C 0.953125 -3.398438 1.46875 -2.046875 2.5 -1.015625 C 3.457031 -0.171875 4.65625 0.25 6.09375 0.25 Z M 6.09375 0.25 "/></g></g><g style="fill:#fbd025;fill-opacity:1;"><g transform="translate(65.918675, 228.523065)"><path style="stroke:none" d="M 11.515625 -21.671875 L 11.515625 0 L 8.109375 0 L 8.109375 -9.40625 L 4.640625 -9.40625 L 4.640625 0 L 1.234375 0 L 1.234375 -21.671875 L 4.640625 -21.671875 L 4.640625 -12.8125 L 8.109375 -12.8125 L 8.109375 -21.671875 Z M 11.515625 -21.671875 "/></g></g><g style="fill:#fbd025;fill-opacity:1;"><g transform="translate(78.669784, 228.523065)"><path style="stroke:none" d="M 6.09375 0.25 C 7.582031 0.25 8.78125 -0.171875 9.6875 -1.015625 C 10.71875 -2.003906 11.234375 -3.359375 11.234375 -5.078125 L 11.234375 -16.59375 C 11.234375 -18.300781 10.71875 -19.648438 9.6875 -20.640625 C 8.78125 -21.492188 7.582031 -21.921875 6.09375 -21.921875 C 4.613281 -21.921875 3.414062 -21.492188 2.5 -20.640625 C 1.46875 -19.648438 0.953125 -18.300781 0.953125 -16.59375 L 0.953125 -5.078125 C 0.953125 -3.359375 1.46875 -2.003906 2.5 -1.015625 C 3.414062 -0.171875 4.613281 0.25 6.09375 0.25 Z M 6.09375 -18.515625 C 6.695312 -18.515625 7.117188 -18.390625 7.359375 -18.140625 C 7.671875 -17.867188 7.828125 -17.351562 7.828125 -16.59375 L 7.828125 -5.078125 C 7.828125 -4.316406 7.671875 -3.800781 7.359375 -3.53125 C 7.117188 -3.28125 6.695312 -3.15625 6.09375 -3.15625 C 5.519531 -3.15625 5.097656 -3.28125 4.828125 -3.53125 C 4.515625 -3.820312 4.359375 -4.335938 4.359375 -5.078125 L 4.359375 -16.59375 C 4.359375 -17.332031 4.515625 -17.847656 4.828125 -18.140625 C 5.097656 -18.390625 5.519531 -18.515625 6.09375 -18.515625 Z M 6.09375 -18.515625 "/></g></g><g style="fill:#fbd025;fill-opacity:1;"><g transform="translate(90.863806, 228.523065)"><path style="stroke:none" d="M 10.21875 -3.40625 L 4.640625 -3.40625 L 4.640625 -21.671875 L 1.234375 -21.671875 L 1.234375 0 L 10.21875 0 Z M 10.21875 -3.40625 "/></g></g><g style="fill:#fbd025;fill-opacity:1;"><g transform="translate(101.789011, 228.523065)"><path style="stroke:none" d="M 8.390625 -3.4375 L 4.484375 -3.4375 L 3.875 0 L 0.40625 0 L 4.734375 -21.671875 L 8.140625 -21.671875 L 12.46875 0 L 9 0 Z M 7.796875 -6.84375 L 6.4375 -14.609375 L 5.078125 -6.84375 Z M 7.796875 -6.84375 "/></g></g><g style="fill:#fbd025;fill-opacity:1;"><g transform="translate(114.694866, 228.523065)"><path style="stroke:none" d="M 11.421875 0 L 7.953125 0 L 6.1875 -8.703125 L 4.640625 -8.703125 L 4.640625 0 L 1.234375 0 L 1.234375 -21.671875 L 6.375 -21.671875 C 7.84375 -21.671875 9.039062 -21.234375 9.96875 -20.359375 C 11 -19.410156 11.515625 -18.070312 11.515625 -16.34375 L 11.515625 -14.015625 C 11.515625 -12.265625 11 -10.914062 9.96875 -9.96875 C 9.820312 -9.820312 9.65625 -9.6875 9.46875 -9.5625 Z M 8.109375 -16.34375 C 8.109375 -17.0625 7.953125 -17.578125 7.640625 -17.890625 C 7.378906 -18.140625 6.957031 -18.265625 6.375 -18.265625 L 4.640625 -18.265625 L 4.640625 -12.109375 L 6.375 -12.109375 C 6.957031 -12.109375 7.378906 -12.226562 7.640625 -12.46875 C 7.953125 -12.757812 8.109375 -13.273438 8.109375 -14.015625 Z M 8.109375 -16.34375 "/></g></g><g style="fill:#fbd025;fill-opacity:1;"><g transform="translate(126.981735, 228.523065)"><path style="stroke:none" d=""/></g></g><g style="fill:#fbd025;fill-opacity:1;"><g transform="translate(131.77888, 228.523065)"><path style="stroke:none" d="M 6.09375 0.25 C 7.582031 0.25 8.78125 -0.171875 9.6875 -1.015625 C 10.71875 -2.003906 11.234375 -3.359375 11.234375 -5.078125 L 11.234375 -7.859375 L 7.828125 -7.859375 L 7.828125 -5.078125 C 7.828125 -4.316406 7.679688 -3.800781 7.390625 -3.53125 C 7.128906 -3.28125 6.695312 -3.15625 6.09375 -3.15625 C 5.519531 -3.15625 5.097656 -3.28125 4.828125 -3.53125 C 4.515625 -3.820312 4.359375 -4.335938 4.359375 -5.078125 L 4.359375 -16.59375 C 4.359375 -17.332031 4.515625 -17.847656 4.828125 -18.140625 C 5.097656 -18.390625 5.519531 -18.515625 6.09375 -18.515625 C 6.695312 -18.515625 7.128906 -18.390625 7.390625 -18.140625 C 7.679688 -17.867188 7.828125 -17.351562 7.828125 -16.59375 L 7.828125 -14.671875 L 11.234375 -14.671875 L 11.234375 -16.59375 C 11.234375 -18.300781 10.71875 -19.648438 9.6875 -20.640625 C 8.78125 -21.492188 7.582031 -21.921875 6.09375 -21.921875 C 4.65625 -21.921875 3.457031 -21.492188 2.5 -20.640625 C 1.46875 -19.609375 0.953125 -18.257812 0.953125 -16.59375 L 0.953125 -5.078125 C 0.953125 -3.398438 1.46875 -2.046875 2.5 -1.015625 C 3.457031 -0.171875 4.65625 0.25 6.09375 0.25 Z M 6.09375 0.25 "/></g></g><g style="fill:#fbd025;fill-opacity:1;"><g transform="translate(143.8491, 228.523065)"><path style="stroke:none" d="M 10.21875 -3.40625 L 4.640625 -3.40625 L 4.640625 -21.671875 L 1.234375 -21.671875 L 1.234375 0 L 10.21875 0 Z M 10.21875 -3.40625 "/></g></g><g style="fill:#fbd025;fill-opacity:1;"><g transform="translate(154.464708, 228.523065)"><path style="stroke:none" d=""/></g></g><g style="fill:#fbd025;fill-opacity:1;"><g transform="translate(159.261853, 228.523065)"><path style="stroke:none" d="M 8.234375 0.28125 C 9.117188 0.28125 9.976562 0.0976562 10.8125 -0.265625 C 11.65625 -0.640625 12.40625 -1.179688 13.0625 -1.890625 L 13.28125 -2.140625 C 13.53125 -1.390625 13.65625 -0.675781 13.65625 0 L 17.109375 0 C 17.109375 -1.664062 16.59375 -3.472656 15.5625 -5.421875 C 16.082031 -6.222656 16.59375 -7.054688 17.09375 -7.921875 L 14.109375 -9.65625 L 13.4375 -8.515625 C 12.6875 -9.398438 11.929688 -10.140625 11.171875 -10.734375 L 10.5625 -11.203125 C 10.738281 -11.328125 10.910156 -11.472656 11.078125 -11.640625 C 11.835938 -12.273438 12.414062 -13.019531 12.8125 -13.875 C 13.207031 -14.738281 13.40625 -15.65625 13.40625 -16.625 L 13.40625 -17.140625 C 13.40625 -18.035156 13.207031 -18.828125 12.8125 -19.515625 C 12.414062 -20.203125 11.859375 -20.753906 11.140625 -21.171875 C 10.273438 -21.671875 9.304688 -21.921875 8.234375 -21.921875 C 7.160156 -21.921875 6.191406 -21.671875 5.328125 -21.171875 C 4.597656 -20.753906 4.035156 -20.203125 3.640625 -19.515625 C 3.253906 -18.828125 3.0625 -18.035156 3.0625 -17.140625 L 3.0625 -16.625 C 3.0625 -14.96875 3.617188 -13.410156 4.734375 -11.953125 L 4.609375 -11.890625 C 3.347656 -11.023438 2.46875 -10.128906 1.96875 -9.203125 C 1.476562 -8.285156 1.234375 -7.40625 1.234375 -6.5625 C 1.234375 -5.34375 1.4375 -4.304688 1.84375 -3.453125 C 2.257812 -2.597656 2.769531 -1.910156 3.375 -1.390625 C 4.65625 -0.273438 6.273438 0.28125 8.234375 0.28125 Z M 8.421875 -8.515625 L 9.03125 -8.015625 C 9.90625 -7.316406 10.722656 -6.460938 11.484375 -5.453125 C 11.085938 -4.890625 10.78125 -4.492188 10.5625 -4.265625 C 9.851562 -3.523438 9.078125 -3.15625 8.234375 -3.15625 C 7.117188 -3.15625 6.253906 -3.4375 5.640625 -4 C 4.992188 -4.550781 4.671875 -5.40625 4.671875 -6.5625 C 4.671875 -7.320312 5.289062 -8.132812 6.53125 -9 L 7.21875 -9.4375 Z M 8.234375 -18.484375 C 8.691406 -18.484375 9.082031 -18.378906 9.40625 -18.171875 C 9.59375 -18.066406 9.734375 -17.9375 9.828125 -17.78125 C 9.921875 -17.625 9.96875 -17.410156 9.96875 -17.140625 L 9.96875 -16.625 C 9.96875 -15.738281 9.609375 -14.953125 8.890625 -14.265625 C 8.597656 -13.992188 8.242188 -13.757812 7.828125 -13.5625 C 6.960938 -14.570312 6.53125 -15.59375 6.53125 -16.625 L 6.53125 -17.140625 C 6.53125 -17.410156 6.578125 -17.625 6.671875 -17.78125 C 6.765625 -17.9375 6.894531 -18.066406 7.0625 -18.171875 C 7.382812 -18.378906 7.773438 -18.484375 8.234375 -18.484375 Z M 8.234375 -18.484375 "/></g></g><g style="fill:#fbd025;fill-opacity:1;"><g transform="translate(177.614788, 228.523065)"><path style="stroke:none" d=""/></g></g><g style="fill:#fbd025;fill-opacity:1;"><g transform="translate(182.411934, 228.523065)"><path style="stroke:none" d="M 4.640625 -8.671875 L 6.375 -8.671875 C 7.863281 -8.671875 9.0625 -9.09375 9.96875 -9.9375 C 11 -10.882812 11.515625 -12.234375 11.515625 -13.984375 L 11.515625 -16.34375 C 11.515625 -18.070312 11 -19.410156 9.96875 -20.359375 C 9.039062 -21.234375 7.84375 -21.671875 6.375 -21.671875 L 1.234375 -21.671875 L 1.234375 0 L 4.640625 0 Z M 4.640625 -18.265625 L 6.375 -18.265625 C 6.957031 -18.265625 7.378906 -18.140625 7.640625 -17.890625 C 7.953125 -17.578125 8.109375 -17.0625 8.109375 -16.34375 L 8.109375 -13.984375 C 8.109375 -13.242188 7.953125 -12.726562 7.640625 -12.4375 C 7.378906 -12.195312 6.957031 -12.078125 6.375 -12.078125 L 4.640625 -12.078125 Z M 4.640625 -18.265625 "/></g></g><g style="fill:#fbd025;fill-opacity:1;"><g transform="translate(193.212775, 228.523065)"><path style="stroke:none" d="M 8.390625 -3.4375 L 4.484375 -3.4375 L 3.875 0 L 0.40625 0 L 4.734375 -21.671875 L 8.140625 -21.671875 L 12.46875 0 L 9 0 Z M 7.796875 -6.84375 L 6.4375 -14.609375 L 5.078125 -6.84375 Z M 7.796875 -6.84375 "/></g></g><g style="fill:#fbd025;fill-opacity:1;"><g transform="translate(204.415831, 228.523065)"><path style="stroke:none" d="M 7.765625 -7.609375 L 7.765625 0 L 4.328125 0 L 4.328125 -7.609375 L 0.15625 -21.671875 L 3.75 -21.671875 L 6.03125 -13.890625 L 8.390625 -21.671875 L 11.984375 -21.671875 Z M 7.765625 -7.609375 "/></g></g><g style="fill:#fbd025;fill-opacity:1;"><g transform="translate(216.547952, 228.523065)"><path style="stroke:none" d="M 11.421875 0 L 7.953125 0 L 6.1875 -8.703125 L 4.640625 -8.703125 L 4.640625 0 L 1.234375 0 L 1.234375 -21.671875 L 6.375 -21.671875 C 7.84375 -21.671875 9.039062 -21.234375 9.96875 -20.359375 C 11 -19.410156 11.515625 -18.070312 11.515625 -16.34375 L 11.515625 -14.015625 C 11.515625 -12.265625 11 -10.914062 9.96875 -9.96875 C 9.820312 -9.820312 9.65625 -9.6875 9.46875 -9.5625 Z M 8.109375 -16.34375 C 8.109375 -17.0625 7.953125 -17.578125 7.640625 -17.890625 C 7.378906 -18.140625 6.957031 -18.265625 6.375 -18.265625 L 4.640625 -18.265625 L 4.640625 -12.109375 L 6.375 -12.109375 C 6.957031 -12.109375 7.378906 -12.226562 7.640625 -12.46875 C 7.953125 -12.757812 8.109375 -13.273438 8.109375 -14.015625 Z M 8.109375 -16.34375 "/></g></g><g style="fill:#fbd025;fill-opacity:1;"><g transform="translate(228.83482, 228.523065)"><path style="stroke:none" d="M 6.09375 0.25 C 7.582031 0.25 8.78125 -0.171875 9.6875 -1.015625 C 10.71875 -2.003906 11.234375 -3.359375 11.234375 -5.078125 L 11.234375 -16.59375 C 11.234375 -18.300781 10.71875 -19.648438 9.6875 -20.640625 C 8.78125 -21.492188 7.582031 -21.921875 6.09375 -21.921875 C 4.613281 -21.921875 3.414062 -21.492188 2.5 -20.640625 C 1.46875 -19.648438 0.953125 -18.300781 0.953125 -16.59375 L 0.953125 -5.078125 C 0.953125 -3.359375 1.46875 -2.003906 2.5 -1.015625 C 3.414062 -0.171875 4.613281 0.25 6.09375 0.25 Z M 6.09375 -18.515625 C 6.695312 -18.515625 7.117188 -18.390625 7.359375 -18.140625 C 7.671875 -17.867188 7.828125 -17.351562 7.828125 -16.59375 L 7.828125 -5.078125 C 7.828125 -4.316406 7.671875 -3.800781 7.359375 -3.53125 C 7.117188 -3.28125 6.695312 -3.15625 6.09375 -3.15625 C 5.519531 -3.15625 5.097656 -3.28125 4.828125 -3.53125 C 4.515625 -3.820312 4.359375 -4.335938 4.359375 -5.078125 L 4.359375 -16.59375 C 4.359375 -17.332031 4.515625 -17.847656 4.828125 -18.140625 C 5.097656 -18.390625 5.519531 -18.515625 6.09375 -18.515625 Z M 6.09375 -18.515625 "/></g></g><g style="fill:#fbd025;fill-opacity:1;"><g transform="translate(241.028842, 228.523065)"><path style="stroke:none" d="M 10.21875 -3.40625 L 4.640625 -3.40625 L 4.640625 -21.671875 L 1.234375 -21.671875 L 1.234375 0 L 10.21875 0 Z M 10.21875 -3.40625 "/></g></g><g style="fill:#fbd025;fill-opacity:1;"><g transform="translate(251.64445, 228.523065)"><path style="stroke:none" d="M 10.21875 -3.40625 L 4.640625 -3.40625 L 4.640625 -21.671875 L 1.234375 -21.671875 L 1.234375 0 L 10.21875 0 Z M 10.21875 -3.40625 "/></g></g><g style="fill:#fbd025;fill-opacity:1;"><g transform="translate(262.260058, 228.523065)"><path style="stroke:none" d=""/></g></g><g style="fill:#fbd025;fill-opacity:1;"><g transform="translate(267.057192, 228.523065)"><path style="stroke:none" d="M 4.640625 -18.265625 L 4.640625 -12.8125 L 8.484375 -12.8125 L 8.484375 -9.40625 L 4.640625 -9.40625 L 4.640625 -3.40625 L 10.21875 -3.40625 L 10.21875 0 L 1.234375 0 L 1.234375 -21.671875 L 10.21875 -21.671875 L 10.21875 -18.265625 Z M 4.640625 -18.265625 "/></g></g><g style="fill:#fbd025;fill-opacity:1;"><g transform="translate(278.13704, 228.523065)"><path style="stroke:none" d="M 11.703125 0 L 9.71875 0 L 4.515625 -10.984375 L 4.515625 0 L 1.109375 0 L 1.109375 -21.671875 L 3.09375 -21.671875 L 8.296875 -10.703125 L 8.296875 -21.671875 L 11.703125 -21.671875 Z M 11.703125 0 "/></g></g><g style="fill:#fbd025;fill-opacity:1;"><g transform="translate(290.950073, 228.523065)"><path style="stroke:none" d="M 6.09375 0.25 C 7.582031 0.25 8.78125 -0.171875 9.6875 -1.015625 C 10.71875 -2.003906 11.234375 -3.359375 11.234375 -5.078125 L 11.234375 -12.53125 L 6.125 -12.53125 L 6.125 -9.125 L 7.828125 -9.125 L 7.828125 -5.078125 C 7.828125 -4.316406 7.679688 -3.800781 7.390625 -3.53125 C 7.128906 -3.28125 6.695312 -3.15625 6.09375 -3.15625 C 5.519531 -3.15625 5.097656 -3.28125 4.828125 -3.53125 C 4.515625 -3.820312 4.359375 -4.335938 4.359375 -5.078125 L 4.359375 -16.59375 C 4.359375 -17.332031 4.515625 -17.847656 4.828125 -18.140625 C 5.097656 -18.390625 5.519531 -18.515625 6.09375 -18.515625 C 6.695312 -18.515625 7.128906 -18.390625 7.390625 -18.140625 C 7.679688 -17.867188 7.828125 -17.351562 7.828125 -16.59375 L 7.828125 -14.671875 L 11.234375 -14.671875 L 11.234375 -16.59375 C 11.234375 -18.300781 10.71875 -19.648438 9.6875 -20.640625 C 8.78125 -21.492188 7.582031 -21.921875 6.09375 -21.921875 C 4.65625 -21.921875 3.457031 -21.492188 2.5 -20.640625 C 1.46875 -19.609375 0.953125 -18.257812 0.953125 -16.59375 L 0.953125 -5.078125 C 0.953125 -3.398438 1.46875 -2.046875 2.5 -1.015625 C 3.457031 -0.171875 4.65625 0.25 6.09375 0.25 Z M 6.09375 0.25 "/></g></g><g style="fill:#fbd025;fill-opacity:1;"><g transform="translate(303.175017, 228.523065)"><path style="stroke:none" d="M 4.640625 -21.671875 L 1.234375 -21.671875 L 1.234375 0 L 4.640625 0 Z M 4.640625 -21.671875 "/></g></g><g style="fill:#fbd025;fill-opacity:1;"><g transform="translate(309.055403, 228.523065)"><path style="stroke:none" d="M 11.703125 0 L 9.71875 0 L 4.515625 -10.984375 L 4.515625 0 L 1.109375 0 L 1.109375 -21.671875 L 3.09375 -21.671875 L 8.296875 -10.703125 L 8.296875 -21.671875 L 11.703125 -21.671875 Z M 11.703125 0 "/></g></g><g style="fill:#fbd025;fill-opacity:1;"><g transform="translate(321.86839, 228.523065)"><path style="stroke:none" d="M 4.640625 -18.265625 L 4.640625 -12.8125 L 8.484375 -12.8125 L 8.484375 -9.40625 L 4.640625 -9.40625 L 4.640625 -3.40625 L 10.21875 -3.40625 L 10.21875 0 L 1.234375 0 L 1.234375 -21.671875 L 10.21875 -21.671875 L 10.21875 -18.265625 Z M 4.640625 -18.265625 "/></g></g></g></svg>